<mxfile host="65bd71144e">
    <diagram id="wnSZFvbqJfbgUPwq1TmN" name="Страница 1">
        <mxGraphModel dx="150" dy="154" grid="1" gridSize="10" guides="1" tooltips="1" connect="1" arrows="1" fold="1" page="1" pageScale="1" pageWidth="827" pageHeight="1169" math="0" shadow="0">
            <root>
                <mxCell id="0"/>
                <mxCell id="1" parent="0"/>
                <mxCell id="3" style="edgeStyle=none;html=1;fontSize=14;entryX=0;entryY=0.25;entryDx=0;entryDy=0;" parent="1" target="2" edge="1">
                    <mxGeometry relative="1" as="geometry">
                        <mxPoint x="319.7894736842105" y="180" as="targetPoint"/>
                        <mxPoint x="70" y="283" as="sourcePoint"/>
                    </mxGeometry>
                </mxCell>
                <mxCell id="5" style="edgeStyle=none;html=1;fontSize=14;entryX=0.002;entryY=0.771;entryDx=0;entryDy=0;entryPerimeter=0;" parent="1" target="2" edge="1">
                    <mxGeometry relative="1" as="geometry">
                        <mxPoint x="270" y="460" as="targetPoint"/>
                        <mxPoint x="70" y="330" as="sourcePoint"/>
                    </mxGeometry>
                </mxCell>
                <mxCell id="7" style="edgeStyle=none;html=1;fontSize=14;entryX=0.352;entryY=0;entryDx=0;entryDy=0;entryPerimeter=0;" parent="1" target="2" edge="1">
                    <mxGeometry relative="1" as="geometry">
                        <mxPoint x="319.7894736842105" y="160" as="targetPoint"/>
                        <mxPoint x="340" y="160" as="sourcePoint"/>
                    </mxGeometry>
                </mxCell>
                <mxCell id="9" style="edgeStyle=none;html=1;fontSize=14;entryX=0.651;entryY=0.001;entryDx=0;entryDy=0;entryPerimeter=0;" parent="1" target="2" edge="1">
                    <mxGeometry relative="1" as="geometry">
                        <mxPoint x="419.7894736842105" y="160" as="targetPoint"/>
                        <mxPoint x="400" y="160" as="sourcePoint"/>
                    </mxGeometry>
                </mxCell>
                <mxCell id="13" style="edgeStyle=none;html=1;exitX=1.011;exitY=0.327;exitDx=0;exitDy=0;fontSize=14;exitPerimeter=0;" parent="1" source="17" edge="1">
                    <mxGeometry relative="1" as="geometry">
                        <mxPoint x="650" y="330" as="targetPoint"/>
                    </mxGeometry>
                </mxCell>
                <mxCell id="15" style="edgeStyle=none;html=1;fontSize=14;entryX=0.5;entryY=1;entryDx=0;entryDy=0;" parent="1" target="2" edge="1">
                    <mxGeometry relative="1" as="geometry">
                        <mxPoint x="350" y="440" as="targetPoint"/>
                        <mxPoint x="370" y="430" as="sourcePoint"/>
                    </mxGeometry>
                </mxCell>
                <mxCell id="2" value="&lt;font style=&quot;font-size: 14px;&quot;&gt;Кластеризировать м&lt;span style=&quot;&quot;&gt;ассив объектов,&amp;nbsp;&lt;/span&gt;&lt;span style=&quot;&quot;&gt;имеющих числовые и&amp;nbsp;&lt;/span&gt;&lt;span style=&quot;&quot;&gt;категориальные признаки&lt;/span&gt;&lt;/font&gt;" style="rounded=0;whiteSpace=wrap;html=1;" parent="1" vertex="1">
                    <mxGeometry x="270" y="260" width="200" height="90" as="geometry"/>
                </mxCell>
                <mxCell id="4" value="Массив объектов&lt;br&gt;c&amp;nbsp;числовыми и&lt;br&gt;категориальными&lt;br&gt;признаками" style="text;html=1;align=center;verticalAlign=middle;resizable=0;points=[];autosize=1;strokeColor=none;fillColor=none;fontSize=14;" parent="1" vertex="1">
                    <mxGeometry x="95" y="210" width="140" height="80" as="geometry"/>
                </mxCell>
                <mxCell id="6" value="Количество кластеров" style="text;html=1;align=center;verticalAlign=middle;resizable=0;points=[];autosize=1;strokeColor=none;fillColor=none;fontSize=14;" parent="1" vertex="1">
                    <mxGeometry x="80" y="300" width="170" height="30" as="geometry"/>
                </mxCell>
                <mxCell id="8" value="Критерий связи&lt;br&gt;кластеров&amp;nbsp;" style="text;html=1;align=center;verticalAlign=middle;resizable=0;points=[];autosize=1;strokeColor=none;fillColor=none;fontSize=14;" parent="1" vertex="1">
                    <mxGeometry x="215" y="165" width="130" height="50" as="geometry"/>
                </mxCell>
                <mxCell id="10" value="Мера &lt;br&gt;расстояний" style="text;html=1;align=center;verticalAlign=middle;resizable=0;points=[];autosize=1;strokeColor=none;fillColor=none;fontSize=14;" parent="1" vertex="1">
                    <mxGeometry x="400" y="165" width="100" height="50" as="geometry"/>
                </mxCell>
                <mxCell id="16" value="ЭВМ" style="text;html=1;align=center;verticalAlign=middle;resizable=0;points=[];autosize=1;strokeColor=none;fillColor=none;fontSize=14;" parent="1" vertex="1">
                    <mxGeometry x="370" y="380" width="50" height="30" as="geometry"/>
                </mxCell>
                <mxCell id="17" value="A0" style="text;html=1;align=center;verticalAlign=middle;resizable=0;points=[];autosize=1;strokeColor=none;fillColor=none;fontSize=14;" parent="1" vertex="1">
                    <mxGeometry x="430" y="320" width="40" height="30" as="geometry"/>
                </mxCell>
                <mxCell id="18" value="Кластеры с номерами &lt;br&gt;входящих в них объектов" style="text;html=1;align=center;verticalAlign=middle;resizable=0;points=[];autosize=1;strokeColor=none;fillColor=none;fontSize=14;" parent="1" vertex="1">
                    <mxGeometry x="470" y="280" width="190" height="50" as="geometry"/>
                </mxCell>
                <mxCell id="19" style="edgeStyle=none;html=1;exitX=0.999;exitY=0.222;exitDx=0;exitDy=0;fontSize=14;exitPerimeter=0;" edge="1" parent="1" source="2">
                    <mxGeometry relative="1" as="geometry">
                        <mxPoint x="650" y="280" as="targetPoint"/>
                        <mxPoint x="470" y="290" as="sourcePoint"/>
                    </mxGeometry>
                </mxCell>
                <mxCell id="20" value="Центры кластеров" style="text;html=1;align=center;verticalAlign=middle;resizable=0;points=[];autosize=1;strokeColor=none;fillColor=none;fontSize=14;" vertex="1" parent="1">
                    <mxGeometry x="490" y="250" width="150" height="30" as="geometry"/>
                </mxCell>
            </root>
        </mxGraphModel>
    </diagram>
</mxfile>